<svg width="17" height="15" viewBox="0 0 17 15" fill="none" xmlns="http://www.w3.org/2000/svg">
<path d="M16.3436 6.54283C16.978 6.54283 17.2429 5.78321 16.7275 5.43306L8.88597 0.117673C8.77399 0.0412177 8.63877 0 8.49995 0C8.36113 0 8.22591 0.0412177 8.11393 0.117673L0.272361 5.43306C-0.243018 5.7813 0.0218581 6.54283 0.658382 6.54283H1.92938V13.6989H0.450999C0.360653 13.6989 0.286734 13.7678 0.286734 13.852V14.8469C0.286734 14.9311 0.360653 15 0.450999 15H16.5489C16.6392 15 16.7132 14.9311 16.7132 14.8469V13.852C16.7132 13.7678 16.6392 13.6989 16.5489 13.6989H15.0705V6.54283H16.3436ZM5.81012 13.6989H3.40776V6.54283H5.81012V13.6989ZM9.69087 13.6989H7.2885V6.54283H9.69087V13.6989ZM13.5921 13.6989H11.1692V6.54283H13.5921V13.6989Z" fill="#F8F8F8"/>
</svg>
